<?xml version="1.0" encoding="UTF-8"?>
<svg id="Layer_1" xmlns="http://www.w3.org/2000/svg" version="1.1" viewBox="0 0 2084.75 525.16">
  <!-- Generator: Adobe Illustrator 29.7.1, SVG Export Plug-In . SVG Version: 2.1.1 Build 8)  -->
  <defs>
    <style>
      .st0 {
        fill-rule: evenodd;
      }

      .st0, .st1 {
        fill: #fff;
      }
    </style>
  </defs>
  <path class="st0" d="M1666.46,243.69c13.52,0,24.48,8.87,24.48,19.81s-10.96,19.82-24.48,19.82c-10.34,0-19.17-5.22-22.75-12.54-1.57,6.76-5.03,12.94-9.98,17.84,7.81,6.91,18.78,11.18,31,11.18,23.7,0,42.91-16.26,42.91-36.32s-19.21-36.29-42.91-36.29c-12.19,0-23.18,4.31-31,11.22,4.96,4.89,8.42,11.08,9.98,17.84,3.58-7.34,12.4-12.54,22.75-12.54v-.02ZM1690.94,341.15c0-10.94-10.96-19.81-24.48-19.81-10.34,0-19.17,5.22-22.75,12.47-1.57-6.76-5.03-12.94-9.98-17.84,7.81-6.87,18.8-11.18,31-11.18,23.7,0,42.91,16.26,42.91,36.32s-19.21,36.32-42.91,36.32c-12.22,0-23.18-4.27-31-11.18,4.96-4.89,8.42-11.07,9.98-17.84,3.58,7.33,12.4,12.54,22.75,12.54,13.52,0,24.48-8.87,24.48-19.81h0ZM1572.85,341.15c0,10.94,10.95,19.81,24.48,19.81v.07c10.34,0,19.16-5.2,22.75-12.54,1.57,6.76,5.03,12.94,9.99,17.83-7.81,6.87-18.81,11.18-31,11.18-23.7,0-42.92-16.26-42.92-36.32s19.22-36.32,42.92-36.32c12.22,0,23.18,4.27,31,11.18-4.96,4.89-8.42,11.07-9.99,17.83-3.58-7.32-12.4-12.54-22.75-12.54-13.52,0-24.48,8.88-24.48,19.82h0ZM1572.85,263.51c0,10.94,10.95,19.81,24.48,19.81,10.34,0,19.16-5.22,22.76-12.51,1.57,6.76,5.03,12.94,9.99,17.83-7.81,6.87-18.81,11.18-31,11.18-23.72,0-42.93-16.22-42.93-36.28s19.22-36.32,42.92-36.32c12.22,0,23.18,4.27,31,11.18-4.96,4.89-8.42,11.07-9.99,17.83-3.58-7.32-12.4-12.54-22.75-12.54-13.52,0-24.48,8.87-24.48,19.81h0Z"/>
  <path class="st1" d="M1750.89,277.87c-2.41.02-4.79-.44-7.02-1.34-2.1-.83-4.02-2.07-5.63-3.64-1.59-1.58-2.85-3.45-3.7-5.52-.92-2.18-1.38-4.51-1.37-6.87-.04-3.1.76-6.14,2.31-8.83,1.5-2.62,3.7-4.78,6.36-6.25,2.76-1.51,5.87-2.28,9.02-2.24,2.98-.03,5.92.66,8.56,2.02,2.53,1.29,4.7,3.19,6.29,5.53l-5,3.06c-1.07-1.55-2.51-2.81-4.18-3.67-1.75-.89-3.7-1.35-5.67-1.33-1.55-.04-3.1.24-4.54.81-1.44.58-2.75,1.44-3.84,2.54-1.1,1.1-1.97,2.41-2.55,3.85s-.85,2.99-.81,4.54c-.04,1.55.24,3.1.82,4.54s1.45,2.76,2.56,3.86c1.09,1.1,2.39,1.97,3.83,2.55s2.99.86,4.54.82c1.97.02,3.92-.43,5.67-1.33,1.68-.86,3.12-2.12,4.18-3.67l5,3.06c-1.58,2.33-3.73,4.23-6.24,5.52-2.64,1.36-5.59,2.05-8.56,2.02"/>
  <path class="st1" d="M1791.34,242.87l-6.17,6.71h-5.78l5-6.71h6.95ZM1781.84,272.6c1.02.03,2.04-.16,2.98-.54s1.8-.96,2.51-1.69c.72-.72,1.28-1.58,1.66-2.53.38-.94.56-1.95.53-2.97.03-1.02-.15-2.03-.53-2.98s-.94-1.81-1.66-2.54c-.71-.73-1.56-1.31-2.51-1.69s-1.96-.57-2.98-.55c-1.03-.02-2.05.16-3,.55-.95.38-1.82.96-2.53,1.69-.73.72-1.29,1.59-1.67,2.53s-.56,1.96-.53,2.98c-.03,1.02.16,2.03.54,2.97s.95,1.8,1.67,2.52c.72.73,1.58,1.31,2.53,1.69s1.98.57,3,.54v.02ZM1789.52,252.48h5.5v24.8h-5.5v-3.56c-1.02,1.33-2.35,2.41-3.87,3.13s-3.2,1.07-4.88,1.02c-2.21.03-4.39-.56-6.29-1.7-1.88-1.12-3.4-2.73-4.42-4.66-1.07-2.04-1.62-4.32-1.59-6.63-.03-2.3.51-4.58,1.59-6.62,1.01-1.93,2.54-3.54,4.42-4.66,1.89-1.14,4.07-1.73,6.29-1.7,1.68-.05,3.36.29,4.88,1.01s2.85,1.79,3.87,3.12v-3.56h0Z"/>
  <path class="st1" d="M1830.35,251.91c1.25-.06,2.5.14,3.66.57,1.17.44,2.24,1.11,3.13,1.97.86.89,1.53,1.94,1.97,3.09s.64,2.38.58,3.61v16.11h-5.47v-14.47c.04-.75-.08-1.5-.34-2.2s-.65-1.35-1.17-1.9c-.53-.52-1.15-.93-1.85-1.19-.69-.27-1.43-.39-2.17-.35-.79-.04-1.58.08-2.33.35-.74.27-1.43.68-2.01,1.22-.55.54-.97,1.19-1.26,1.91-.28.71-.41,1.48-.38,2.25v14.4h-5.48v-14.47c.04-.75-.07-1.5-.33-2.2s-.66-1.35-1.17-1.9c-.53-.52-1.17-.93-1.87-1.2-.7-.27-1.45-.38-2.2-.35-.78-.03-1.55.09-2.28.36s-1.4.68-1.96,1.21c-.55.54-.98,1.19-1.27,1.91-.28.72-.41,1.49-.38,2.26v14.39h-5.5v-24.77h5.5v2.89c.92-1.14,2.1-2.05,3.45-2.66,1.34-.61,2.81-.89,4.28-.83,1.68-.04,3.33.36,4.81,1.15,1.36.74,2.48,1.86,3.22,3.22,2-2.91,4.93-4.37,8.78-4.37h.04Z"/>
  <path class="st1" d="M1856.56,272.6c1.02.03,2.04-.16,2.98-.54s1.8-.96,2.5-1.69c.72-.72,1.29-1.57,1.68-2.51.38-.94.57-1.95.55-2.96.03-1.02-.15-2.03-.53-2.98s-.94-1.81-1.66-2.54c-.71-.73-1.56-1.3-2.51-1.69-.94-.38-1.96-.57-2.98-.55-1.03-.02-2.05.16-3,.55-.95.38-1.81.96-2.53,1.69-.73.72-1.31,1.58-1.7,2.53s-.58,1.97-.55,2.99c-.02,1.02.17,2.03.55,2.98.39.94.97,1.8,1.7,2.51.72.73,1.58,1.31,2.53,1.69.95.38,1.98.57,3,.54l-.04-.02h.01ZM1864.28,252.49h5.5v24.78h-5.5v-3.56c-1.02,1.33-2.35,2.41-3.87,3.13s-3.2,1.07-4.89,1.02c-2.21.02-4.39-.56-6.29-1.7-1.87-1.12-3.4-2.73-4.41-4.66-1.08-2.04-1.62-4.32-1.59-6.63-.03-2.3.52-4.58,1.59-6.62,1.01-1.93,2.54-3.54,4.41-4.66,1.9-1.14,4.07-1.72,6.29-1.7,1.69-.05,3.36.29,4.88,1.01s2.85,1.79,3.88,3.12v-3.55.02Z"/>
  <path class="st1" d="M1888.32,252.1h.94v5.61h-.94c-1.04-.06-2.08.09-3.06.44-.98.35-1.88.89-2.64,1.59-.7.73-1.25,1.59-1.61,2.53-.36.95-.51,1.95-.46,2.96v12.05h-5.5v-24.77h5.5v3.63c.86-1.26,2.01-2.29,3.37-2.99,1.36-.71,2.87-1.06,4.4-1.05h0Z"/>
  <path class="st1" d="M1903.5,272.6c1.02.03,2.04-.16,2.98-.54.95-.38,1.8-.96,2.51-1.69.72-.72,1.28-1.58,1.66-2.53.38-.94.56-1.95.53-2.97.03-1.02-.15-2.03-.53-2.98s-.94-1.81-1.66-2.54c-.71-.73-1.56-1.31-2.51-1.69s-1.96-.57-2.98-.55c-1.03-.02-2.05.16-3,.55-.95.38-1.81.96-2.53,1.69-.72.72-1.29,1.59-1.67,2.53-.38.95-.56,1.96-.53,2.98-.03,1.02.16,2.03.54,2.97s.95,1.8,1.67,2.52c.72.73,1.58,1.31,2.53,1.69.95.38,1.98.57,3,.54v.02ZM1911.17,252.48h5.5v24.8h-5.5v-3.56c-1.02,1.33-2.35,2.41-3.87,3.13s-3.2,1.07-4.88,1.02c-2.21.03-4.39-.56-6.29-1.7-1.87-1.12-3.4-2.74-4.42-4.66-1.07-2.04-1.62-4.32-1.59-6.63-.03-2.3.51-4.58,1.59-6.62,1.01-1.93,2.54-3.54,4.42-4.66,1.89-1.14,4.07-1.73,6.29-1.7,1.69-.05,3.36.29,4.88,1.01s2.85,1.79,3.87,3.12v-3.56h0Z"/>
  <path class="st1" d="M1746.44,317.88c1.02.02,2.04-.16,2.98-.55.95-.38,1.8-.96,2.51-1.69.72-.72,1.28-1.58,1.66-2.53.38-.94.56-1.95.53-2.97.03-1.02-.15-2.03-.53-2.98s-.94-1.81-1.66-2.54c-.71-.73-1.56-1.31-2.51-1.69s-1.96-.57-2.98-.54c-1.03-.03-2.05.16-3,.54s-1.81.96-2.53,1.69c-.73.72-1.3,1.58-1.68,2.53s-.56,1.96-.53,2.98c-.03,1.02.16,2.03.54,2.97s.95,1.8,1.67,2.52c.72.73,1.58,1.3,2.53,1.69.95.38,1.97.57,3,.55v.02ZM1754.12,287.56h5.5v35.03h-5.5v-3.56c-1.02,1.33-2.35,2.41-3.87,3.13s-3.2,1.07-4.88,1.02c-2.22.02-4.4-.56-6.3-1.69-1.87-1.13-3.4-2.74-4.41-4.67-1.08-2.04-1.62-4.32-1.59-6.62-.03-2.31.52-4.58,1.59-6.63,1.01-1.92,2.54-3.53,4.41-4.66,1.9-1.14,4.08-1.73,6.3-1.7,1.68-.05,3.36.29,4.88,1.01s2.85,1.79,3.87,3.12v-13.79h0Z"/>
  <path class="st1" d="M1776.28,302.1c-1.68-.03-3.33.53-4.63,1.59-1.33,1.07-2.26,2.55-2.64,4.2h14.57c-.37-1.65-1.29-3.13-2.62-4.2-1.32-1.06-2.97-1.62-4.67-1.59h-.01ZM1789.43,310.21c0,.72-.05,1.43-.15,2.14h-20.23c.41,1.71,1.41,3.23,2.83,4.28,1.51,1.09,3.34,1.66,5.21,1.6,1.51.01,3-.32,4.36-.97,1.23-.56,2.3-1.39,3.14-2.44l3.71,3.15c-1.31,1.63-3,2.93-4.91,3.79-2.02.93-4.22,1.4-6.45,1.38-1.81.06-3.62-.24-5.31-.88s-3.24-1.61-4.55-2.85c-1.28-1.19-2.29-2.64-2.97-4.24-.68-1.61-1.01-3.34-.96-5.08-.03-2.3.56-4.57,1.72-6.56,1.13-1.96,2.77-3.57,4.76-4.67,2.05-1.13,4.36-1.71,6.71-1.68,1.73-.05,3.46.26,5.07.9,1.61.64,3.07,1.6,4.29,2.83,1.23,1.22,2.2,2.67,2.85,4.27.65,1.6.95,3.32.91,5.04"/>
  <path class="st1" d="M1821.19,323.15c-2.41.02-4.79-.44-7.02-1.34-2.1-.83-4.01-2.07-5.63-3.64-1.59-1.58-2.85-3.46-3.7-5.52-.92-2.17-1.38-4.51-1.37-6.86-.04-3.1.76-6.15,2.31-8.84,1.5-2.62,3.71-4.78,6.37-6.24,2.76-1.51,5.87-2.28,9.02-2.24,2.98-.03,5.92.66,8.56,2.01,2.54,1.28,4.71,3.18,6.31,5.52l-5,3.06c-1.07-1.55-2.5-2.81-4.18-3.67-1.75-.9-3.7-1.36-5.67-1.34-1.55-.04-3.1.24-4.54.81-1.44.58-2.75,1.44-3.84,2.54-1.11,1.1-1.98,2.4-2.56,3.84-.58,1.44-.86,2.98-.82,4.53-.04,1.55.24,3.1.82,4.54s1.45,2.76,2.56,3.86c1.09,1.1,2.39,1.97,3.83,2.55s2.98.86,4.54.82c1.97.02,3.92-.44,5.67-1.34,1.68-.86,3.12-2.12,4.18-3.67l5,3.06c-1.59,2.34-3.75,4.24-6.29,5.52-2.64,1.36-5.59,2.05-8.56,2.02"/>
  <path class="st1" d="M1845.56,315.66c.72.73,1.58,1.3,2.53,1.69.95.38,1.97.57,3,.55,1.02.03,2.04-.16,2.98-.55.94-.38,1.8-.96,2.5-1.69.72-.72,1.29-1.58,1.66-2.52.38-.94.56-1.95.53-2.97.03-1.02-.15-2.03-.53-2.98s-.94-1.81-1.67-2.53c-.71-.73-1.56-1.31-2.5-1.69s-1.96-.57-2.98-.54c-1.03-.02-2.05.17-3,.55-.95.38-1.81.96-2.53,1.69-.73.72-1.31,1.58-1.7,2.52-.39.95-.58,1.96-.56,2.98-.02,1.02.17,2.03.56,2.98.39.94.97,1.8,1.7,2.52h.01ZM1851.09,323.11c-1.76.05-3.52-.26-5.16-.9-1.64-.64-3.13-1.6-4.39-2.83-1.24-1.19-2.23-2.63-2.88-4.22-.66-1.59-.98-3.29-.94-5.01-.04-1.72.28-3.43.93-5.03.66-1.59,1.64-3.03,2.89-4.23,1.26-1.23,2.75-2.19,4.39-2.83s3.39-.95,5.16-.9c2.38-.03,4.72.56,6.8,1.7,2.01,1.09,3.68,2.71,4.82,4.67,1.17,2.01,1.77,4.29,1.74,6.61.03,2.32-.57,4.6-1.74,6.6-1.14,1.97-2.81,3.59-4.82,4.67-2.08,1.14-4.42,1.73-6.8,1.7"/>
  <path class="st1" d="M1897.95,297.19c1.25-.06,2.5.13,3.67.57s2.24,1.1,3.14,1.96c.86.89,1.53,1.94,1.97,3.1.44,1.15.64,2.38.58,3.61v16.09h-5.46v-14.44c.04-.75-.08-1.5-.33-2.2-.26-.71-.66-1.35-1.17-1.9-.53-.52-1.15-.93-1.85-1.19-.69-.27-1.43-.39-2.17-.35-.79-.03-1.57.09-2.31.36-.74.27-1.41.69-1.98,1.23-.55.54-.98,1.19-1.26,1.9s-.41,1.48-.38,2.25v14.39h-5.48v-14.47c.04-.75-.07-1.5-.33-2.2-.26-.71-.66-1.35-1.17-1.9-.53-.52-1.16-.93-1.85-1.19-.69-.27-1.43-.39-2.18-.35-.78-.03-1.56.09-2.29.36s-1.4.69-1.97,1.22c-.55.54-.98,1.19-1.26,1.91s-.41,1.48-.38,2.25v14.39h-5.51v-24.78h5.51v2.89c.92-1.14,2.1-2.05,3.44-2.66,1.34-.61,2.81-.89,4.28-.83,1.68-.03,3.33.36,4.81,1.16,1.36.74,2.48,1.86,3.23,3.21,2-2.91,4.93-4.36,8.77-4.37"/>
  <path class="st1" d="M1923.89,302.1c-1.68-.03-3.32.54-4.63,1.59-1.32,1.07-2.25,2.55-2.64,4.2h14.56c-.36-1.65-1.28-3.14-2.61-4.2-1.32-1.06-2.98-1.63-4.68-1.59ZM1937.04,310.21c0,.72-.05,1.43-.14,2.14h-20.23c.4,1.72,1.4,3.23,2.83,4.28,1.51,1.09,3.34,1.66,5.21,1.6,1.51.01,3-.32,4.36-.97,1.23-.56,2.3-1.39,3.14-2.44l3.71,3.15c-1.31,1.63-3,2.93-4.91,3.79-2.02.92-4.22,1.4-6.45,1.38-1.81.06-3.62-.24-5.31-.88s-3.24-1.61-4.56-2.85c-1.28-1.19-2.29-2.64-2.97-4.25-.68-1.61-1.01-3.34-.96-5.08-.03-2.3.56-4.57,1.72-6.56,1.13-1.95,2.77-3.55,4.75-4.64,2.05-1.13,4.36-1.71,6.71-1.68,1.73-.05,3.46.26,5.07.9,1.61.64,3.07,1.6,4.29,2.83,1.23,1.21,2.2,2.67,2.85,4.27.65,1.6.95,3.32.91,5.04"/>
  <path class="st1" d="M1953.97,297.38h.93v5.6h-.93c-1.04-.06-2.08.09-3.06.44-.98.35-1.88.89-2.64,1.59-.71.73-1.25,1.59-1.61,2.53s-.51,1.95-.46,2.96v12.06h-5.5v-24.77h5.47v3.63c.86-1.26,2.02-2.29,3.37-2.99,1.36-.7,2.87-1.06,4.4-1.04"/>
  <path class="st1" d="M1969.05,323.15c-1.76.05-3.51-.26-5.15-.9-1.64-.64-3.13-1.6-4.39-2.83-1.25-1.2-2.24-2.64-2.89-4.23-.66-1.59-.98-3.31-.93-5.03-.04-1.72.27-3.43.93-5.03.66-1.59,1.64-3.03,2.89-4.23,1.26-1.23,2.75-2.19,4.39-2.83s3.39-.95,5.15-.9c2.36-.03,4.69.54,6.76,1.66,1.95,1.05,3.58,2.59,4.73,4.47l-4.76,2.87c-.66-1.15-1.62-2.11-2.78-2.77-1.19-.68-2.55-1.04-3.92-1.02-1.03-.02-2.05.16-3,.55-.95.38-1.81.96-2.53,1.69-.73.72-1.31,1.58-1.7,2.52-.39.95-.58,1.96-.55,2.98-.02,1.02.17,2.03.55,2.98.39.94.97,1.8,1.7,2.51.72.73,1.58,1.3,2.53,1.68.95.38,1.97.57,2.99.55,1.37.02,2.71-.32,3.9-.99,1.15-.66,2.1-1.61,2.76-2.75l4.76,2.85c-1.15,1.9-2.79,3.46-4.75,4.52-2.05,1.12-4.36,1.7-6.71,1.67"/>
  <path class="st1" d="M1983.46,297.78h5.53v24.78h-5.51l-.02-24.78ZM1986.22,293.58c-.46.01-.92-.07-1.35-.24-.43-.17-.81-.43-1.14-.75s-.58-.7-.75-1.12c-.17-.42-.25-.87-.24-1.32-.02-.46.06-.91.24-1.34.18-.42.43-.81.76-1.13s.72-.57,1.15-.74c.43-.17.89-.25,1.35-.24.46-.01.92.07,1.35.24.43.17.82.42,1.15.74.33.32.59.7.77,1.13.17.42.25.88.24,1.34.01.46-.07.91-.24,1.33-.18.42-.43.8-.76,1.12s-.72.58-1.15.75-.89.25-1.35.24"/>
  <path class="st1" d="M1999.92,315.66c.72.73,1.58,1.3,2.53,1.69.95.38,1.97.57,3,.55,1.02.02,2.04-.16,2.98-.55.94-.38,1.8-.96,2.5-1.69.72-.72,1.29-1.59,1.66-2.53.38-.95.56-1.96.53-2.98.03-1.02-.15-2.03-.53-2.98s-.94-1.81-1.66-2.54c-.71-.73-1.56-1.31-2.5-1.69-.94-.39-1.96-.57-2.98-.54-1.03-.02-2.05.17-3,.55-.95.38-1.81.96-2.53,1.69-.73.72-1.31,1.58-1.7,2.52-.39.95-.57,1.96-.56,2.98-.02,1.02.17,2.03.56,2.98.39.94.96,1.8,1.7,2.52v.02h0ZM2005.45,323.09c-1.76.05-3.51-.26-5.16-.9-1.64-.64-3.13-1.6-4.39-2.83-1.24-1.19-2.22-2.62-2.88-4.21s-.98-3.29-.94-5c-.04-1.72.28-3.43.94-5.02.66-1.59,1.64-3.03,2.88-4.22,1.26-1.23,2.75-2.19,4.39-2.83,1.64-.64,3.39-.95,5.16-.9,2.39-.03,4.74.55,6.83,1.7,2.01,1.09,3.68,2.71,4.82,4.67,1.16,2.01,1.75,4.28,1.71,6.6.03,2.32-.57,4.6-1.74,6.6-1.13,1.97-2.79,3.59-4.79,4.69-2.08,1.14-4.42,1.73-6.8,1.7"/>
  <path class="st1" d="M1746.44,363.16c1.02.03,2.04-.16,2.98-.54.95-.38,1.8-.96,2.51-1.69.72-.72,1.28-1.58,1.66-2.53s.56-1.95.53-2.97c.03-1.02-.15-2.03-.53-2.98s-.94-1.81-1.66-2.54c-.71-.73-1.56-1.3-2.51-1.69-.95-.38-1.96-.57-2.98-.55-1.03-.02-2.05.16-3,.55-.95.38-1.81.96-2.53,1.69-.73.72-1.3,1.58-1.68,2.53s-.56,1.96-.53,2.98c-.03,1.02.16,2.03.54,2.97s.95,1.8,1.67,2.52c.72.73,1.58,1.31,2.53,1.69s1.98.57,3,.54v.02ZM1754.12,332.83h5.5v35.03h-5.5v-3.59c-1.02,1.33-2.35,2.41-3.87,3.13s-3.2,1.07-4.88,1.02c-2.22.03-4.4-.56-6.3-1.69-1.87-1.12-3.4-2.74-4.41-4.67-1.08-2.04-1.62-4.32-1.59-6.62-.03-2.3.52-4.58,1.59-6.62,1.01-1.92,2.54-3.54,4.41-4.67,1.9-1.13,4.08-1.72,6.3-1.69,1.68-.05,3.36.29,4.88,1.01s2.85,1.79,3.87,3.12v-13.77h0Z"/>
  <path class="st1" d="M1776.28,347.38c-1.68-.03-3.32.53-4.63,1.59-1.33,1.07-2.26,2.55-2.64,4.2h14.57c-.37-1.65-1.29-3.13-2.62-4.2-1.32-1.05-2.98-1.62-4.67-1.59h-.01ZM1789.43,355.49c0,.72-.05,1.43-.15,2.14h-20.23c.4,1.72,1.41,3.23,2.83,4.29,1.51,1.09,3.34,1.65,5.21,1.59,1.51.01,3-.32,4.36-.97,1.23-.55,2.31-1.39,3.14-2.44l3.71,3.15c-1.31,1.63-3,2.94-4.91,3.8-2.02.92-4.22,1.39-6.45,1.37-1.81.06-3.62-.24-5.31-.88s-3.24-1.61-4.55-2.85c-1.28-1.19-2.29-2.64-2.97-4.25s-1.01-3.34-.96-5.08c-.03-2.3.57-4.56,1.72-6.56,1.13-1.95,2.77-3.55,4.75-4.64,2.05-1.13,4.36-1.71,6.71-1.68,1.73-.05,3.46.26,5.07.9,1.61.64,3.07,1.6,4.29,2.83,1.23,1.22,2.2,2.67,2.85,4.27.65,1.6.96,3.32.91,5.04"/>
  <path class="st1" d="M1820.31,362.63c.64.02,1.27-.1,1.86-.34s1.12-.6,1.56-1.06c.45-.46.81-1,1.04-1.59s.35-1.23.33-1.87c.02-.63-.1-1.26-.33-1.85-.24-.59-.59-1.12-1.04-1.57-.44-.45-.98-.81-1.57-1.05s-1.22-.35-1.86-.34h-9.45v9.69h9.45v-.02ZM1819.14,339.53h-8.26v8.54h8.26c.56,0,1.11-.1,1.63-.31s.98-.53,1.37-.93c.4-.4.72-.87.94-1.39.21-.52.32-1.08.3-1.64.03-.57-.06-1.13-.26-1.66s-.51-1.01-.91-1.42c-.39-.4-.86-.71-1.37-.92-.52-.21-1.07-.31-1.63-.3l-.07.04h0ZM1825.37,350.02c1.74.55,3.23,1.7,4.21,3.23,1.09,1.62,1.66,3.54,1.63,5.49.04,1.21-.19,2.42-.65,3.54-.46,1.12-1.16,2.13-2.04,2.97-.9.85-1.96,1.52-3.12,1.97-1.16.44-2.4.65-3.64.61h-16.45v-33.54h15.33c1.15-.03,2.3.16,3.38.58,1.08.41,2.06,1.04,2.89,1.83.82.77,1.48,1.71,1.91,2.75.44,1.04.64,2.16.61,3.29,0,1.55-.42,3.07-1.22,4.4-.67,1.23-1.69,2.24-2.93,2.91"/>
  <path class="st1" d="M1841.24,360.94c.72.73,1.58,1.3,2.53,1.69.95.38,1.97.57,3,.55,1.02.02,2.03-.16,2.98-.55.94-.38,1.8-.96,2.5-1.69.72-.72,1.29-1.58,1.66-2.52.38-.94.56-1.95.53-2.97.03-1.02-.15-2.03-.53-2.98s-.94-1.81-1.67-2.54c-.71-.73-1.56-1.3-2.5-1.69s-1.96-.57-2.98-.55c-1.03-.02-2.05.17-3,.55-.95.38-1.81.96-2.53,1.69-.73.72-1.31,1.58-1.7,2.52-.39.95-.58,1.96-.56,2.98-.02,1.02.17,2.03.55,2.98.39.95.97,1.8,1.7,2.51h0l.02.02ZM1846.77,368.38c-1.76.05-3.51-.26-5.15-.9-1.64-.64-3.13-1.6-4.39-2.83-1.25-1.2-2.24-2.64-2.89-4.23-.66-1.59-.98-3.31-.94-5.03-.04-1.72.28-3.43.94-5.03.66-1.59,1.65-3.03,2.89-4.23,1.25-1.23,2.75-2.19,4.39-2.83,1.64-.64,3.39-.95,5.15-.9,2.38-.03,4.72.56,6.8,1.69,2.01,1.09,3.68,2.71,4.82,4.67,1.17,2.01,1.77,4.29,1.74,6.61.03,2.32-.57,4.6-1.74,6.61-1.15,1.97-2.82,3.58-4.82,4.67-2.08,1.14-4.42,1.72-6.8,1.69"/>
  <path class="st1" d="M1874.2,347.62c-.78-.02-1.57.11-2.3.39-.73.28-1.4.7-1.97,1.24-.56.52-1,1.15-1.29,1.85-.3.7-.44,1.46-.42,2.22-.02.75.13,1.51.42,2.2s.74,1.32,1.29,1.84c.57.54,1.24.96,1.97,1.24s1.51.41,2.3.39c.78.02,1.56-.11,2.28-.39.73-.28,1.39-.7,1.95-1.24.55-.52.99-1.14,1.28-1.84s.44-1.44.42-2.19c.02-.76-.12-1.51-.41-2.21-.29-.7-.73-1.33-1.29-1.86-.56-.54-1.22-.96-1.95-1.24s-1.5-.41-2.28-.39h0ZM1879.74,368.07c2.18-.08,4.31.59,6.06,1.89,1.64,1.27,2.71,3.12,3,5.16l-5.69,1.49c-.02-.47-.15-.93-.37-1.34s-.54-.77-.92-1.05c-.89-.62-1.97-.93-3.06-.89h-8.59c-1.95.09-3.86-.53-5.39-1.74-.67-.56-1.2-1.26-1.55-2.05-.36-.79-.53-1.65-.5-2.52,0-1.21.3-2.41.88-3.48.55-1.04,1.38-1.9,2.4-2.5-1.09-.98-1.96-2.18-2.54-3.51s-.87-2.79-.83-4.24c-.03-1.45.25-2.89.82-4.22s1.43-2.53,2.5-3.51c2.23-2.08,5.2-3.19,8.26-3.11,1.97-.02,3.92.43,5.69,1.3.28-1.27,1.04-2.39,2.12-3.13,1.18-.79,2.58-1.18,4-1.14h2.01v5.05h-1.72c-.69-.02-1.37.18-1.93.58-.25.18-.46.41-.61.68s-.24.56-.26.87c1.53,1.87,2.35,4.22,2.32,6.63.03,1.45-.26,2.88-.83,4.21-.58,1.33-1.44,2.52-2.52,3.49-2.24,2.07-5.2,3.19-8.26,3.11-1.58.02-3.16-.25-4.64-.8-.41.24-.75.59-.99,1.01-.23.42-.35.89-.35,1.36,0,.33.06.65.2.95.14.3.35.56.61.76.61.46,1.36.7,2.13.66l8.56.03h0Z"/>
  <path class="st1" d="M1896.11,360.94c.72.73,1.58,1.3,2.53,1.68.95.38,1.97.57,2.99.55,1.02.03,2.04-.16,2.98-.55.95-.38,1.8-.96,2.51-1.69.72-.72,1.28-1.58,1.66-2.53s.56-1.95.53-2.97c.03-1.02-.15-2.03-.53-2.98s-.94-1.81-1.66-2.54c-.71-.73-1.56-1.31-2.51-1.69s-1.96-.57-2.98-.55c-1.03-.02-2.05.16-3,.55-.95.38-1.81.96-2.53,1.69-.73.72-1.31,1.58-1.7,2.52-.39.95-.58,1.96-.56,2.98-.02,1.02.17,2.03.55,2.98.39.94.97,1.8,1.7,2.51h0l.02.04ZM1901.63,368.38c-1.76.05-3.51-.26-5.15-.9-1.64-.64-3.13-1.6-4.39-2.83-1.25-1.2-2.23-2.64-2.89-4.23s-.98-3.3-.94-5.03c-.04-1.71.28-3.41.94-5,.66-1.58,1.63-3.02,2.87-4.21,1.26-1.23,2.75-2.19,4.39-2.83,1.64-.64,3.39-.95,5.15-.9,2.38-.03,4.72.56,6.81,1.69,2.01,1.09,3.68,2.71,4.82,4.67,1.17,2.01,1.77,4.29,1.74,6.61.02,2.32-.58,4.6-1.74,6.61-1.15,1.97-2.81,3.58-4.82,4.67-2.08,1.14-4.43,1.72-6.81,1.69"/>
  <path class="st1" d="M1932.83,347.99h-7.05v11.72c-.04.47.03.95.19,1.39.16.44.42.85.75,1.19.75.62,1.71.93,2.69.86,1.19-.02,2.36-.31,3.42-.86v5.11c-1.42.69-2.99,1.04-4.57,1.02-2.63,0-4.61-.69-5.96-2.06-1.34-1.37-2.01-3.3-2.01-5.77v-12.6h-4.23v-4.93h4.23v-6.42h5.48v6.42h7.05v4.93h.01Z"/>
  <path class="st1" d="M1957.44,333.42l-6.18,6.71h-5.78l5-6.71h6.96ZM1947.94,363.16c1.02.02,2.03-.16,2.98-.55.94-.38,1.8-.96,2.5-1.69.72-.72,1.29-1.58,1.66-2.52.38-.94.56-1.95.53-2.97.03-1.02-.15-2.03-.53-2.98s-.94-1.81-1.67-2.54c-.71-.73-1.56-1.3-2.5-1.69-.94-.38-1.96-.57-2.98-.55-1.03-.02-2.05.16-3,.55-.95.38-1.82.96-2.53,1.69-.73.72-1.31,1.58-1.7,2.53-.39.95-.58,1.96-.55,2.99-.02,1.02.17,2.03.56,2.98.39.94.96,1.8,1.7,2.52.72.73,1.58,1.3,2.53,1.69.95.38,1.97.57,3,.55h0ZM1955.62,343.03h5.5v24.78h-5.5v-3.54c-1.02,1.33-2.35,2.41-3.87,3.13s-3.2,1.07-4.88,1.02c-2.22.03-4.4-.56-6.3-1.69-1.87-1.12-3.4-2.74-4.41-4.67-1.08-2.04-1.62-4.32-1.59-6.62-.03-2.3.52-4.58,1.59-6.62,1.01-1.92,2.54-3.54,4.41-4.67,1.9-1.13,4.08-1.72,6.3-1.69,1.69-.05,3.36.29,4.88,1.01s2.85,1.79,3.87,3.12v-3.56h0Z"/>
  <g>
    <path class="st1" d="M1029.35,265.27v65.83h-32.17v-42.35h-.33c0,27.58-15.1,44-40.55,44-28.07,0-44.65-23.15-44.65-62.38s22.65-62.38,61.07-62.38c32.34,0,53.02,18.22,55.65,48.92h-32.67c-1.64-13.95-10.18-22.33-22.98-22.33-16.09,0-25.61,13.3-25.61,35.78s9.52,35.78,25.61,35.78c12.97,0,21.34-7.06,23.47-19.21h-23.97v-21.67h57.13Z"/>
    <path class="st1" d="M1040.52,289.07c0-27.41,17.56-43.66,47.11-43.66s46.95,16.25,46.95,43.66-17.4,43.67-46.95,43.67-47.11-16.25-47.11-43.67ZM1101.26,289.07c0-11.33-5.09-18.06-13.63-18.06s-13.62,6.73-13.62,18.06,5.09,17.89,13.62,17.89,13.63-6.56,13.63-17.89Z"/>
    <path class="st1" d="M1183.34,241.14v5.91h22.49v21.83h-20.85v62.21h-32.83v-62.21h-11.65v-21.83h42.02v-.33c-20.19,0-32.01-7.06-32.01-19.21,0-15.43,13.63-24.46,36.61-24.46,8.37,0,17.56,1.97,24.62,5.09l-4.1,23.97c-3.12-2.14-7.55-3.28-11.82-3.28-7.88,0-12.48,4.6-12.48,12.31h0Z"/>
    <path class="st1" d="M1298.26,292.19h-56.96c.82,10.34,5.58,16.25,12.97,16.25,6.07,0,10.67-2.95,12.48-7.88h31.52c-3.45,20.19-19.86,32.18-43.99,32.18-28.07,0-44.65-16.25-44.65-43.83s16.58-43.5,44.65-43.5,43.99,16.09,43.99,43.5v3.28h-.01ZM1241.46,283.98h24.95c-.99-9.19-5.42-14.45-12.15-14.45s-11.65,5.25-12.8,14.45h0Z"/>
    <path class="st1" d="M1305.48,303.84h30.21c0,5.91,4.27,9.36,11.33,9.36,6.57,0,10.34-2.46,10.34-6.73,0-5.25-7.39-6.24-16.42-7.55-14.61-1.97-33.49-4.76-33.49-25.94,0-17.24,14.77-27.58,39.56-27.58s39.56,10.18,39.56,27.58h-30.2c0-5.42-3.45-8.54-9.36-8.54-5.25,0-8.37,2.14-8.37,5.25,0,4.76,7.39,5.91,16.41,7.22,14.45,2.13,33.49,5.09,33.49,25.28s-15.43,30.53-41.53,30.53-41.53-10.67-41.53-28.89h0Z"/>
    <path class="st1" d="M1437.64,268.88v29.22c0,5.58,3.94,8.86,10.67,8.86,3.94,0,7.55-.98,10.34-2.63v23.97c-6.08,2.79-13.79,4.43-20.85,4.43-20.68,0-32.99-10.84-32.99-29.39v-34.47h-10.01v-21.83h11.65v-26.43h32.83v6.89c0,12.15-11.82,19.21-32.01,19.21v.33h52.86v21.83h-22.49Z"/>
  </g>
  <g>
    <path class="st1" d="M1580.33,177.89c-7.91,0-12.58-5.44-12.58-14.66s4.67-14.66,12.58-14.66c6.48,0,10.85,4.05,11.81,10.8h-3.86c-.89-4.71-3.82-7.48-7.95-7.48-5.29,0-8.45,4.2-8.45,11.34s3.16,11.35,8.45,11.35c4.17,0,7.06-2.86,7.95-7.68h3.86c-.96,6.87-5.36,11-11.81,11h0Z"/>
    <path class="st1" d="M1609.5,158.48l-1.16,3.59c-.73-.42-1.77-.69-2.78-.69-3.32,0-5.25,2.58-5.25,6.98v9.15h-3.86v-19.22h3.86v7.52h.08c0-4.98,2.28-7.91,6.14-7.91,1.08,0,2.2.23,2.97.58h0Z"/>
    <path class="st1" d="M1628.94,168.43h-14.43c.15,4.05,2.16,6.44,5.36,6.44,2.82,0,4.79-1.54,5.29-4.17h3.78c-.66,4.51-4.01,7.18-9.07,7.18-5.75,0-9.1-3.7-9.1-9.99s3.36-9.99,9.1-9.99,9.07,3.7,9.07,9.99v.54h0ZM1614.55,166.81h10.57c-.31-3.74-2.2-5.9-5.25-5.9s-5.01,2.16-5.32,5.9Z"/>
    <path class="st1" d="M1651.28,158.28v19.22h-3.86v-6.41h-.08c0,4.25-2.59,6.79-6.99,6.79-5.01,0-7.99-3.7-7.99-9.99s2.97-9.99,7.99-9.99c4.4,0,6.99,2.55,6.99,6.79h.08v-6.41h3.86ZM1647.69,167.89c0-4.17-2.08-6.87-5.67-6.87s-5.68,2.55-5.68,6.87,2.08,6.87,5.68,6.87,5.67-2.7,5.67-6.87Z"/>
    <path class="st1" d="M1674.77,147.79v29.71h-3.86v-6.41h-.08c0,4.25-2.59,6.79-6.99,6.79-5.01,0-7.99-3.7-7.99-9.99s2.97-9.99,7.99-9.99c4.4,0,6.99,2.55,6.99,6.79h.08v-16.9h3.86ZM1671.19,167.89c0-4.17-2.08-6.87-5.67-6.87s-5.68,2.55-5.68,6.87,2.08,6.87,5.68,6.87,5.67-2.7,5.67-6.87Z"/>
    <path class="st1" d="M1679.36,167.89c0-6.29,3.59-9.99,9.61-9.99s9.61,3.7,9.61,9.99-3.55,9.99-9.61,9.99-9.61-3.7-9.61-9.99ZM1694.64,167.89c0-4.32-2.08-6.87-5.67-6.87s-5.67,2.55-5.67,6.87,2.08,6.87,5.67,6.87,5.67-2.55,5.67-6.87Z"/>
    <path class="st1" d="M1730.9,167.89c0,6.29-2.97,9.99-7.99,9.99-4.36,0-6.99-2.55-6.99-6.79h-.08v15.28h-3.86v-28.09h3.86v6.41h.08c0-4.24,2.62-6.79,6.99-6.79,5.01,0,7.99,3.7,7.99,9.99h0ZM1726.97,167.89c0-4.32-2.08-6.87-5.67-6.87s-5.71,2.7-5.71,6.87,2.12,6.87,5.71,6.87,5.67-2.55,5.67-6.87Z"/>
    <path class="st1" d="M1734.41,167.89c0-6.29,3.59-9.99,9.61-9.99s9.61,3.7,9.61,9.99-3.55,9.99-9.61,9.99-9.61-3.7-9.61-9.99ZM1749.69,167.89c0-4.32-2.08-6.87-5.67-6.87s-5.67,2.55-5.67,6.87,2.08,6.87,5.67,6.87,5.67-2.55,5.67-6.87Z"/>
    <path class="st1" d="M1771.22,158.48l-1.16,3.59c-.73-.42-1.77-.69-2.78-.69-3.32,0-5.25,2.58-5.25,6.98v9.15h-3.86v-19.22h3.86v7.52h.08c0-4.98,2.28-7.91,6.14-7.91,1.08,0,2.2.23,2.97.58h0Z"/>
    <path class="st1" d="M1778.47,158.05v4.28h-4.52v-4.28h4.52ZM1778.47,173.22v4.28h-4.52v-4.28h4.52Z"/>
  </g>
  <g>
    <path class="st1" d="M916.61,360.53v6.15h7.65v2.11h-7.65v8.43h-2.67v-18.8h11.64v2.11h-8.97Z"/>
    <path class="st1" d="M941.22,375.12v2.11h-12.75v-18.8h12.47v2.11h-9.81v5.94h8.92v2.13h-8.92v6.5h10.09Z"/>
    <path class="st1" d="M943.26,370.72h2.64c.2,2.87,2.01,4.57,4.85,4.57s4.67-1.22,4.67-3.33c0-2.59-2.49-2.97-5.13-3.38-3.07-.48-6.5-1.02-6.5-4.98,0-3.51,2.57-5.44,6.91-5.44,4.06,0,6.63,2.41,6.91,6.45h-2.62c-.15-2.69-1.8-4.27-4.4-4.27s-4.12,1.12-4.12,3.07c0,2.21,2.29,2.57,4.8,2.95,3.2.51,6.86,1.07,6.86,5.36,0,3.61-2.77,5.74-7.44,5.74-4.37,0-7.14-2.49-7.44-6.76v.02Z"/>
    <path class="st1" d="M973.29,360.53h-5.69v16.69h-2.67v-16.69h-5.69v-2.11h14.05v2.11Z"/>
    <path class="st1" d="M976.03,358.42h2.67v18.8h-2.67v-18.8Z"/>
    <path class="st1" d="M997.55,358.42l-5.67,18.8h-4.83l-5.64-18.8h2.87l5.23,18.55h.05l5.26-18.55h2.73Z"/>
    <path class="st1" d="M1010.15,372.5h-8.61l-1.47,4.73h-2.72l6.25-18.8h4.7l6.2,18.8h-2.87l-1.47-4.73h0ZM1009.49,370.37l-3.61-11.69h-.05l-3.63,11.69h7.29Z"/>
    <path class="st1" d="M1028.24,375.04v2.18h-11.18v-18.8h2.67v16.62h8.51Z"/>
    <path class="st1" d="M1036.12,358.42h5.69c5.72,0,9.1,3.51,9.1,9.4s-3.38,9.4-9.1,9.4h-5.69v-18.8ZM1041.96,375.12c3.91,0,6.2-2.72,6.2-7.29s-2.29-7.29-6.2-7.29h-3.18v14.58h3.18Z"/>
    <path class="st1" d="M1067.19,375.12v2.11h-12.75v-18.8h12.47v2.11h-9.81v5.94h8.92v2.13h-8.92v6.5h10.09Z"/>
    <path class="st1" d="M1089.14,375.12v2.11h-12.75v-18.8h12.47v2.11h-9.81v5.94h8.92v2.13h-8.92v6.5h10.09Z"/>
    <path class="st1" d="M1112.85,377.22h-2.67l-.56-18.55h-.05l-4.9,18.55h-4.7l-4.62-18.55h-.05l-.56,18.55h-2.52l.58-18.8h5.16l4.42,18.55h.05l4.67-18.55h5.13l.61,18.8h0Z"/>
    <path class="st1" d="M1130.3,364.17c0,3.61-2.41,5.77-6.53,5.77h-3.96v7.29h-2.67v-18.8h6.66c4.09,0,6.5,2.13,6.5,5.74ZM1127.58,364.17c0-2.29-1.35-3.63-3.63-3.63h-4.14v7.27h4.12c2.29,0,3.66-1.35,3.66-3.63h0Z"/>
    <path class="st1" d="M1147.6,377.22h-3l-4.47-7.88h-4.06v7.88h-2.67v-18.8h6.91c4.19,0,6.68,1.96,6.68,5.23,0,3.56-2.44,5.64-6.56,5.64v.05c1.55,0,3.07.89,3.99,2.49l3.18,5.39h0ZM1140.49,367.32c2.39,0,3.76-1.27,3.76-3.46s-1.4-3.33-3.76-3.33h-4.42v6.78h4.42Z"/>
    <path class="st1" d="M1163.38,375.12v2.11h-12.75v-18.8h12.47v2.11h-9.81v5.94h8.92v2.13h-8.92v6.5h10.09Z"/>
    <path class="st1" d="M1181.04,358.42v18.8h-4.55l-7.24-18.55h-.05l.1,18.55h-2.57v-18.8h4.57l7.24,18.55h.05l-.08-18.55h2.53Z"/>
    <path class="st1" d="M1185.61,358.42h5.69c5.72,0,9.1,3.51,9.1,9.4s-3.38,9.4-9.1,9.4h-5.69v-18.8ZM1191.45,375.12c3.91,0,6.2-2.72,6.2-7.29s-2.29-7.29-6.2-7.29h-3.18v14.58h3.18Z"/>
    <path class="st1" d="M1203.93,358.42h2.67v18.8h-2.67v-18.8Z"/>
    <path class="st1" d="M1231.52,377.22h-2.67l-.56-18.55h-.05l-4.9,18.55h-4.7l-4.62-18.55h-.05l-.56,18.55h-2.52l.58-18.8h5.16l4.42,18.55h.05l4.67-18.55h5.13l.61,18.8h0Z"/>
    <path class="st1" d="M1235.81,358.42h2.67v18.8h-2.67v-18.8Z"/>
    <path class="st1" d="M1255.81,375.12v2.11h-12.75v-18.8h12.47v2.11h-9.81v5.94h8.92v2.13h-8.92v6.5h10.09Z"/>
    <path class="st1" d="M1273.46,358.42v18.8h-4.55l-7.24-18.55h-.05l.1,18.55h-2.57v-18.8h4.57l7.24,18.55h.05l-.08-18.55h2.53Z"/>
    <path class="st1" d="M1290.26,360.53h-5.69v16.69h-2.67v-16.69h-5.69v-2.11h14.05v2.11Z"/>
    <path class="st1" d="M1291.25,367.82c0-6.07,3.1-9.65,8.36-9.65s8.33,3.58,8.33,9.65-3.1,9.65-8.33,9.65-8.36-3.58-8.36-9.65ZM1305.2,367.82c0-4.7-2.08-7.47-5.59-7.47s-5.64,2.77-5.64,7.47,2.08,7.47,5.64,7.47,5.59-2.77,5.59-7.47Z"/>
    <path class="st1" d="M1317.34,358.42h5.69c5.72,0,9.1,3.51,9.1,9.4s-3.38,9.4-9.1,9.4h-5.69v-18.8ZM1323.19,375.12c3.91,0,6.2-2.72,6.2-7.29s-2.29-7.29-6.2-7.29h-3.18v14.58h3.18Z"/>
    <path class="st1" d="M1348.41,375.12v2.11h-12.75v-18.8h12.47v2.11h-9.81v5.94h8.92v2.13h-8.92v6.5h10.09Z"/>
    <path class="st1" d="M1371.66,371.81c0,3.4-2.36,5.41-6.4,5.41h-7.65v-18.8h7.47c3.25,0,5.16,1.58,5.16,4.27,0,2.44-1.88,3.89-5.06,3.89v.05h.36c3.86,0,6.12,1.93,6.12,5.18h0ZM1364.22,360.53h-3.94v6.05h3.94c2.06,0,3.28-1.09,3.28-3s-1.22-3.05-3.28-3.05ZM1368.92,371.81c0-2.03-1.32-3.25-3.53-3.25h-5.11v6.55h5.11c2.21,0,3.53-1.25,3.53-3.3Z"/>
    <path class="st1" d="M1374,367.82c0-6.07,3.1-9.65,8.36-9.65s8.33,3.58,8.33,9.65-3.1,9.65-8.33,9.65-8.36-3.58-8.36-9.65ZM1387.95,367.82c0-4.7-2.08-7.47-5.59-7.47s-5.64,2.77-5.64,7.47,2.08,7.47,5.64,7.47,5.59-2.77,5.59-7.47Z"/>
    <path class="st1" d="M1409.34,367.42v9.81h-2.49v-6.78h-.05c0,4.42-2.41,7.04-6.53,7.04s-7.04-3.58-7.04-9.65,3.1-9.65,8.33-9.65c4.17,0,6.99,2.59,7.62,6.91h-2.54c-.56-2.95-2.46-4.73-5.08-4.73-3.53,0-5.59,2.77-5.59,7.47s2.01,7.47,5.44,7.47,5.26-2.24,5.36-6h-5.61v-1.88h8.18Z"/>
    <path class="st1" d="M1412.11,367.82c0-6.07,3.1-9.65,8.36-9.65s8.33,3.58,8.33,9.65-3.1,9.65-8.33,9.65-8.36-3.58-8.36-9.65ZM1426.06,367.82c0-4.7-2.08-7.47-5.59-7.47s-5.64,2.77-5.64,7.47,2.08,7.47,5.64,7.47,5.59-2.77,5.59-7.47Z"/>
    <path class="st1" d="M1443.84,360.53h-5.69v16.69h-2.67v-16.69h-5.69v-2.11h14.05v2.11Z"/>
    <path class="st1" d="M1455.78,372.5h-8.61l-1.47,4.73h-2.72l6.25-18.8h4.7l6.2,18.8h-2.87l-1.47-4.73h-.01ZM1455.12,370.37l-3.61-11.69h-.05l-3.63,11.69h7.29ZM1450.4,356.19l-.76-1.4,4.62-2.49.84,1.52-4.7,2.36h0Z"/>
  </g>
  <g>
    <path class="st1" d="M347.46,196.54c-7.65-8.22-18.47-12.34-32.47-12.34h-64.95v140.86h24.46v-49.93h40.49c14,0,24.83-4.12,32.47-12.34,7.65-8.22,11.47-19.27,11.47-33.12s-3.82-24.9-11.47-33.12ZM333.17,234.81c0,6.01-1.75,10.63-5.2,13.84-3.47,3.23-8.31,4.84-14.51,4.84h-38.97v-47.65h38.97c6.2,0,11.05,1.61,14.51,4.82,3.47,3.23,5.2,7.84,5.2,13.84v10.3Z"/>
    <path class="st1" d="M518.57,305.8v-56.51c0-12.69-3.89-22.43-11.7-29.23-7.79-6.79-18.98-10.18-33.56-10.18-10.96,0-19.83,2.04-26.62,6.16-6.77,4.12-12.05,9.34-15.8,15.7l14.07,12.78c2.9-4.47,6.42-8.14,10.61-11.03,4.19-2.88,9.6-4.33,16.24-4.33,7.93,0,13.77,1.87,17.53,5.62s5.62,9.1,5.62,16.03v9.53h-20.36c-15.73,0-27.67,2.83-35.83,8.45-8.15,5.64-12.24,14.07-12.24,25.33,0,10.25,3.14,18.4,9.43,24.46,6.29,6.06,15.26,9.1,26.96,9.1,8.22,0,15.22-1.8,21-5.41,5.78-3.61,9.74-8.96,11.91-16.03h1.08c.72,5.48,2.74,10,6.06,13.53,3.32,3.54,8.07,5.31,14.28,5.31h.02s13.2,0,13.2,0v-19.27h-11.91ZM494.97,291.74c0,5.48-2.37,9.85-7.14,13.09-4.77,3.25-10.82,4.87-18.19,4.87-5.92,0-10.58-1.26-13.97-3.79-3.39-2.51-5.08-6.32-5.08-11.37v-3.89c0-10.11,8.15-15.15,24.46-15.15h19.92v16.24Z"/>
    <polygon class="st1" points="607.91 325.07 607.91 306.02 668.31 231.77 609.86 231.77 609.86 212.2 696.25 212.5 696.25 230.69 634.98 305.81 697.77 305.81 697.77 325.09 607.92 325.09 607.91 325.07"/>
    <path class="st1" d="M397.07,325.07h15.15v-19.27h-15.59v-121.48h-23.6v126.73c0,7.75,6.29,14.05,14.05,14.05l9.99-.03h0Z"/>
    <path class="st1" d="M722.05,170.3c-7.75,0-14.05,6.29-14.05,14.05s6.29,14.05,14.05,14.05,14.05-6.29,14.05-14.05-6.29-14.05-14.05-14.05Z"/>
    <path class="st1" d="M532.54,212.2h-2.08v19.57h18.03v68.84c0,7.79,2.1,13.83,6.29,18.07,4.19,4.26,10.39,6.39,18.61,6.39h20.57v-19.27h-21.88v-74.04h23.6v-19.57h-23.6v-27.99h-21.21v13.98c0,7.73-6.25,14-13.98,14h-4.38l.04.02Z"/>
    <rect class="st1" x="710.25" y="212.5" width="23.6" height="112.57"/>
    <path class="st1" d="M133.97,174.56l-59.78,59.78c-11,11-11,28.84,0,39.86l59.78,59.78c11,11,28.84,11,39.86,0l19.92-19.92-19.92-19.92-19.92,19.92-59.78-59.78,59.78-59.78,39.86,39.86-39.86,39.86,19.92,19.92,39.86-39.86c11-11,11-28.84,0-39.86l-39.86-39.86c-11-11-28.84-11-39.86,0h0Z"/>
  </g>
  <rect class="st1" x="824.78" y="177.9" width="6.82" height="147.17"/>
</svg>