<?xml version="1.0" encoding="UTF-8"?>
<svg id="Layer_1" xmlns="http://www.w3.org/2000/svg" version="1.1" viewBox="0 0 560.78 88.58">
  <!-- Generator: Adobe Illustrator 29.6.1, SVG Export Plug-In . SVG Version: 2.1.1 Build 9)  -->
  <defs>
    <style>
      .st0 {
        fill: #fff;
      }
    </style>
  </defs>
  <path class="st0" d="M92.69,79.94V9.01h32.7c7.05,0,12.5,2.07,16.35,6.21,3.85,4.14,5.78,9.7,5.78,16.68s-1.93,12.54-5.78,16.68c-3.85,4.14-9.3,6.21-16.35,6.21h-20.38v25.14h-12.32ZM105.01,43.89h19.62c3.12,0,5.56-.81,7.3-2.43,1.74-1.62,2.62-3.94,2.62-6.97v-5.18c0-3.02-.87-5.35-2.62-6.97-1.74-1.62-4.18-2.43-7.3-2.43h-19.62v23.98ZM227.25,79.94c-3.13,0-5.52-.89-7.19-2.67-1.67-1.78-2.69-4.05-3.05-6.81h-.55c-1.09,3.56-3.09,6.25-6,8.07-2.91,1.82-6.43,2.73-10.57,2.73-5.89,0-10.41-1.53-13.57-4.58s-4.74-7.16-4.74-12.32c0-5.67,2.05-9.92,6.16-12.75,4.1-2.83,10.12-4.25,18.04-4.25h10.25v-4.8c0-3.49-.94-6.18-2.83-8.07-1.89-1.89-4.83-2.83-8.83-2.83-3.34,0-6.07.73-8.18,2.18-2.11,1.45-3.89,3.31-5.34,5.56l-7.09-6.43c1.89-3.2,4.54-5.83,7.96-7.9,3.42-2.07,7.88-3.11,13.41-3.11,7.34,0,12.97,1.71,16.9,5.12,3.93,3.42,5.89,8.32,5.89,14.72v28.45h6v9.7h-6.65ZM203.27,72.2c3.71,0,6.76-.82,9.16-2.45,2.4-1.63,3.6-3.83,3.6-6.59v-8.18h-10.03c-8.21,0-12.32,2.54-12.32,7.63v1.96c0,2.54.85,4.45,2.56,5.72,1.71,1.27,4.05,1.91,7.03,1.91ZM272.89,79.94v-9.59l30.41-37.39h-29.43v-9.85l43.49.15v9.16l-30.85,37.83h31.61v9.7h-45.24ZM166.73,79.94h7.63v-9.7h-7.85V9.08h-11.88v63.81c0,3.91,3.17,7.07,7.07,7.07l5.03-.02ZM330.35,2c-3.91,0-7.07,3.17-7.07,7.07s3.17,7.07,7.07,7.07,7.07-3.17,7.07-7.07-3.17-7.07-7.07-7.07ZM234.94,23.1h-1.04v9.85h9.08v34.66c0,3.92,1.05,6.96,3.16,9.1,2.11,2.14,5.23,3.22,9.37,3.22h10.36v-9.7h-11.01v-37.28h11.88v-9.85h-11.88v-14.09h-10.68v4.94s0,2.1,0,2.1c0,3.89-3.15,7.05-7.04,7.05h-2.21ZM324.41,23.26h11.88v56.68h-11.88V23.26ZM34.26,4.16L4.16,34.26c-5.54,5.54-5.54,14.53,0,20.07l30.1,30.1c5.54,5.54,14.53,5.54,20.07,0l10.03-10.03-10.03-10.03-10.03,10.03-30.1-30.1,30.1-30.1,20.07,20.07-20.07,20.07,10.03,10.03,20.07-20.07c5.54-5.54,5.54-14.53,0-20.07L54.32,4.16c-5.54-5.54-14.53-5.54-20.07,0ZM395.19,79.68c-8.53,0-15.13-2.97-19.79-8.91-4.66-5.94-6.99-14.75-6.99-26.43s2.33-20.48,6.99-26.58c4.66-6.1,11.26-9.16,19.79-9.16,5.51,0,10.16,1.3,13.93,3.89,3.77,2.59,6.71,6.15,8.81,10.68l-4.82,2.86c-1.51-3.74-3.79-6.71-6.84-8.91-3.05-2.2-6.74-3.3-11.08-3.3-6.43,0-11.45,2.31-15.06,6.91-3.61,4.61-5.42,11.19-5.42,19.75v7.8c0,8.49,1.8,14.98,5.42,19.46,3.61,4.48,8.63,6.72,15.06,6.72,4.59,0,8.43-1.16,11.52-3.5,3.08-2.33,5.38-5.46,6.89-9.4l4.82,2.86c-2.03,4.73-5.02,8.45-8.96,11.17-3.94,2.72-8.7,4.09-14.28,4.09ZM450.03,79.68c-3.35,0-6.37-.59-9.06-1.77-2.69-1.18-4.99-2.9-6.89-5.17-1.9-2.26-3.38-5.04-4.43-8.32-1.05-3.28-1.58-6.99-1.58-11.12s.52-7.83,1.58-11.08c1.05-3.25,2.53-6.01,4.43-8.27,1.9-2.26,4.2-4,6.89-5.22,2.69-1.21,5.71-1.82,9.06-1.82s6.37.61,9.06,1.82c2.69,1.22,4.99,2.95,6.89,5.22,1.9,2.26,3.38,5.02,4.43,8.27,1.05,3.25,1.58,6.94,1.58,11.08s-.53,7.84-1.58,11.12c-1.05,3.28-2.53,6.05-4.43,8.32-1.9,2.26-4.2,3.99-6.89,5.17-2.69,1.18-5.71,1.77-9.06,1.77ZM450.03,74.66c4.92,0,8.81-1.54,11.67-4.63,2.86-3.08,4.28-7.61,4.28-13.59v-6.3c0-5.91-1.43-10.42-4.28-13.54-2.86-3.12-6.74-4.68-11.67-4.68s-8.81,1.54-11.67,4.63c-2.86,3.09-4.28,7.61-4.28,13.59v6.3c0,5.91,1.43,10.42,4.28,13.54,2.86,3.12,6.74,4.68,11.67,4.68ZM486.26,78.5V28.09h5.61v7.97h.3c1.12-2.62,2.86-4.81,5.22-6.55,2.36-1.74,5.58-2.61,9.65-2.61,5.38,0,9.57,1.66,12.55,4.97,2.99,3.31,4.48,8.06,4.48,14.23v32.39h-5.61v-31.41c0-5.12-1.1-8.93-3.3-11.42-2.2-2.49-5.4-3.74-9.6-3.74-1.77,0-3.48.23-5.12.69-1.64.46-3.1,1.15-4.38,2.07-1.28.92-2.3,2.08-3.05,3.49-.75,1.41-1.13,3.04-1.13,4.87v35.44h-5.61ZM544.05,32.92h-8.66v-4.82h8.66v-14.08c0-2.56.64-4.59,1.92-6.1,1.28-1.51,3.26-2.26,5.96-2.26h8.86v4.82h-11.12v17.62h11.12v4.82h-11.12v45.58h-5.61v-45.58Z"/>
</svg>